<svg xmlns="http://www.w3.org/2000/svg" xmlns:xlink="http://www.w3.org/1999/xlink" version="1.1" class="marks" width="761" height="400" viewBox="0 0 761 400"><rect width="761" height="400" fill="white"/><g fill="none" stroke-miterlimit="10" transform="translate(36,51)"><g class="mark-group role-frame root" role="graphics-object" aria-roledescription="group mark container"><g transform="translate(0,0)"><path class="background" aria-hidden="true" d="M0,0h720v327h-720Z" fill="#EBEBEB"/><g><g class="mark-group role-axis" aria-hidden="true"><g transform="translate(0.5,327.5)"><path class="background" aria-hidden="true" d="M0,0h0v0h0Z" pointer-events="none"/><g><g class="mark-rule role-axis-grid" pointer-events="none"><line transform="translate(36,-327)" x2="0" y2="327" stroke="#FFFFFF" stroke-width="1" opacity="1"/><line transform="translate(107,-327)" x2="0" y2="327" stroke="#FFFFFF" stroke-width="1" opacity="1"/><line transform="translate(178,-327)" x2="0" y2="327" stroke="#FFFFFF" stroke-width="1" opacity="1"/><line transform="translate(249,-327)" x2="0" y2="327" stroke="#FFFFFF" stroke-width="1" opacity="1"/><line transform="translate(320,-327)" x2="0" y2="327" stroke="#FFFFFF" stroke-width="1" opacity="1"/><line transform="translate(391,-327)" x2="0" y2="327" stroke="#FFFFFF" stroke-width="1" opacity="1"/><line transform="translate(462,-327)" x2="0" y2="327" stroke="#FFFFFF" stroke-width="1" opacity="1"/><line transform="translate(533,-327)" x2="0" y2="327" stroke="#FFFFFF" stroke-width="1" opacity="1"/><line transform="translate(605,-327)" x2="0" y2="327" stroke="#FFFFFF" stroke-width="1" opacity="1"/><line transform="translate(676,-327)" x2="0" y2="327" stroke="#FFFFFF" stroke-width="1" opacity="1"/></g></g><path class="foreground" aria-hidden="true" d="" pointer-events="none" display="none"/></g></g><g class="mark-group role-axis" aria-hidden="true"><g transform="translate(0.5,0.5)"><path class="background" aria-hidden="true" d="M0,0h0v0h0Z" pointer-events="none"/><g><g class="mark-rule role-axis-grid" pointer-events="none"><line transform="translate(0,312)" x2="720" y2="0" stroke="#FFFFFF" stroke-width="1" opacity="1"/><line transform="translate(0,228)" x2="720" y2="0" stroke="#FFFFFF" stroke-width="1" opacity="1"/><line transform="translate(0,145)" x2="720" y2="0" stroke="#FFFFFF" stroke-width="1" opacity="1"/><line transform="translate(0,61)" x2="720" y2="0" stroke="#FFFFFF" stroke-width="1" opacity="1"/></g></g><path class="foreground" aria-hidden="true" d="" pointer-events="none" display="none"/></g></g><g class="mark-group role-axis" role="graphics-symbol" aria-roledescription="axis" aria-label="X-axis for a time scale with values from Friday, 01 July 2016, 2:00:00 AM to Sunday, 16 August 2026, 2:00:00 AM"><g transform="translate(0.5,327.5)"><path class="background" aria-hidden="true" d="M0,0h0v0h0Z" pointer-events="none"/><g><g class="mark-rule role-axis-tick" pointer-events="none"><line transform="translate(36,0)" x2="0" y2="4" stroke="#333333" stroke-width="1" opacity="1"/><line transform="translate(107,0)" x2="0" y2="4" stroke="#333333" stroke-width="1" opacity="1"/><line transform="translate(178,0)" x2="0" y2="4" stroke="#333333" stroke-width="1" opacity="1"/><line transform="translate(249,0)" x2="0" y2="4" stroke="#333333" stroke-width="1" opacity="1"/><line transform="translate(320,0)" x2="0" y2="4" stroke="#333333" stroke-width="1" opacity="1"/><line transform="translate(391,0)" x2="0" y2="4" stroke="#333333" stroke-width="1" opacity="1"/><line transform="translate(462,0)" x2="0" y2="4" stroke="#333333" stroke-width="1" opacity="1"/><line transform="translate(533,0)" x2="0" y2="4" stroke="#333333" stroke-width="1" opacity="1"/><line transform="translate(605,0)" x2="0" y2="4" stroke="#333333" stroke-width="1" opacity="1"/><line transform="translate(676,0)" x2="0" y2="4" stroke="#333333" stroke-width="1" opacity="1"/></g><g class="mark-text role-axis-label" pointer-events="none"><text text-anchor="middle" transform="translate(35.824770146024875,15)" font-family="sans-serif" font-size="12px" fill="#4D4D4D" opacity="1">2017</text><text text-anchor="middle" transform="translate(106.89021092482423,15)" font-family="sans-serif" font-size="12px" fill="#4D4D4D" opacity="1">2018</text><text text-anchor="middle" transform="translate(177.95565170362357,15)" font-family="sans-serif" font-size="12px" fill="#4D4D4D" opacity="1">2019</text><text text-anchor="middle" transform="translate(249.02109248242294,15)" font-family="sans-serif" font-size="12px" fill="#4D4D4D" opacity="1">2020</text><text text-anchor="middle" transform="translate(320.28123309897245,15)" font-family="sans-serif" font-size="12px" fill="#4D4D4D" opacity="1">2021</text><text text-anchor="middle" transform="translate(391.34667387777176,15)" font-family="sans-serif" font-size="12px" fill="#4D4D4D" opacity="1">2022</text><text text-anchor="middle" transform="translate(462.41211465657113,15)" font-family="sans-serif" font-size="12px" fill="#4D4D4D" opacity="1">2023</text><text text-anchor="middle" transform="translate(533.4775554353705,15)" font-family="sans-serif" font-size="12px" fill="#4D4D4D" opacity="1">2024</text><text text-anchor="middle" transform="translate(604.73769605192,15)" font-family="sans-serif" font-size="12px" fill="#4D4D4D" opacity="1">2025</text><text text-anchor="middle" transform="translate(675.8031368307193,15)" font-family="sans-serif" font-size="12px" fill="#4D4D4D" opacity="1">2026</text></g></g><path class="foreground" aria-hidden="true" d="" pointer-events="none" display="none"/></g></g><g class="mark-group role-axis" role="graphics-symbol" aria-roledescription="axis" aria-label="Y-axis for a linear scale with values from −2 to 37"><g transform="translate(0.5,0.5)"><path class="background" aria-hidden="true" d="M0,0h0v0h0Z" pointer-events="none"/><g><g class="mark-rule role-axis-tick" pointer-events="none"><line transform="translate(0,312)" x2="-4" y2="0" stroke="#333333" stroke-width="1" opacity="1"/><line transform="translate(0,228)" x2="-4" y2="0" stroke="#333333" stroke-width="1" opacity="1"/><line transform="translate(0,145)" x2="-4" y2="0" stroke="#333333" stroke-width="1" opacity="1"/><line transform="translate(0,61)" x2="-4" y2="0" stroke="#333333" stroke-width="1" opacity="1"/></g><g class="mark-text role-axis-label" pointer-events="none"><text text-anchor="end" transform="translate(-6,316.1363636363636)" font-family="sans-serif" font-size="12px" fill="#4D4D4D" opacity="1">0%</text><text text-anchor="end" transform="translate(-6,232.39756722151088)" font-family="sans-serif" font-size="12px" fill="#4D4D4D" opacity="1">10%</text><text text-anchor="end" transform="translate(-6,148.65877080665814)" font-family="sans-serif" font-size="12px" fill="#4D4D4D" opacity="1">20%</text><text text-anchor="end" transform="translate(-6,64.91997439180537)" font-family="sans-serif" font-size="12px" fill="#4D4D4D" opacity="1">30%</text></g></g><path class="foreground" aria-hidden="true" d="" pointer-events="none" display="none"/></g></g><g class="mark-rule role-mark layer_0_marks" clip-path="url(#clip1)" role="graphics-symbol" aria-roledescription="rule mark container"><line transform="translate(687.2904272579773,312.1363636363636)" x2="0" y2="-201.156324973832" stroke="#8eeffacc" stroke-width="6" stroke-dasharray="" opacity="1"/><line transform="translate(681.8388318009735,312.1363636363636)" x2="0" y2="-183.42213952804153" stroke="#8eeffacc" stroke-width="6" stroke-dasharray="" opacity="1"/><line transform="translate(675.8031368307193,312.1363636363636)" x2="0" y2="-184.29519883611766" stroke="#8eeffacc" stroke-width="6" stroke-dasharray="" opacity="1"/><line transform="translate(669.767441860465,312.1363636363636)" x2="0" y2="-186.11943867760965" stroke="#8eeffacc" stroke-width="6" stroke-dasharray="" opacity="1"/><line transform="translate(663.9264467279611,312.1363636363636)" x2="0" y2="-186.2075888698855" stroke="#8eeffacc" stroke-width="6" stroke-dasharray="" opacity="1"/><line transform="translate(657.8907517577069,312.1363636363636)" x2="0" y2="-175.50688641837164" stroke="#8eeffacc" stroke-width="6" stroke-dasharray="" opacity="1"/><line transform="translate(652.0497566252028,312.1363636363636)" x2="0" y2="-161.75132225865823" stroke="#8eeffacc" stroke-width="6" stroke-dasharray="" opacity="1"/><line transform="translate(646.0140616549486,312.1363636363636)" x2="0" y2="-159.0774070455153" stroke="#8eeffacc" stroke-width="6" stroke-dasharray="" opacity="1"/><line transform="translate(639.9783666846944,312.1363636363636)" x2="0" y2="-153.73289661375867" stroke="#8eeffacc" stroke-width="6" stroke-dasharray="" opacity="1"/><line transform="translate(634.1373715521904,312.1363636363636)" x2="0" y2="-154.15615786979737" stroke="#8eeffacc" stroke-width="6" stroke-dasharray="" opacity="1"/><line transform="translate(628.1016765819362,312.1363636363636)" x2="0" y2="-150.68273207033766" stroke="#8eeffacc" stroke-width="6" stroke-dasharray="" opacity="1"/><line transform="translate(622.2606814494321,312.1363636363636)" x2="0" y2="-157.0913159895158" stroke="#8eeffacc" stroke-width="6" stroke-dasharray="" opacity="1"/><line transform="translate(616.2249864791779,312.1363636363636)" x2="0" y2="-140.46151876968773" stroke="#8eeffacc" stroke-width="6" stroke-dasharray="" opacity="1"/><line transform="translate(610.7733910221742,312.1363636363636)" x2="0" y2="-147.97555926332572" stroke="#8eeffacc" stroke-width="6" stroke-dasharray="" opacity="1"/><line transform="translate(604.73769605192,312.1363636363636)" x2="0" y2="-139.12642066651847" stroke="#8eeffacc" stroke-width="6" stroke-dasharray="" opacity="1"/><line transform="translate(598.7020010816658,312.1363636363636)" x2="0" y2="-125.05986296246783" stroke="#8eeffacc" stroke-width="6" stroke-dasharray="" opacity="1"/><line transform="translate(592.8610059491617,312.1363636363636)" x2="0" y2="-120.42177495751793" stroke="#8eeffacc" stroke-width="6" stroke-dasharray="" opacity="1"/><line transform="translate(586.8253109789075,312.1363636363636)" x2="0" y2="-128.10672883373297" stroke="#8eeffacc" stroke-width="6" stroke-dasharray="" opacity="1"/><line transform="translate(580.9843158464035,312.1363636363636)" x2="0" y2="-138.24551643241537" stroke="#8eeffacc" stroke-width="6" stroke-dasharray="" opacity="1"/><line transform="translate(574.9486208761493,312.1363636363636)" x2="0" y2="-114.68347342490858" stroke="#8eeffacc" stroke-width="6" stroke-dasharray="" opacity="1"/><line transform="translate(568.9129259058951,312.1363636363636)" x2="0" y2="-108.11468231801416" stroke="#8eeffacc" stroke-width="6" stroke-dasharray="" opacity="1"/><line transform="translate(563.0719307733909,312.1363636363636)" x2="0" y2="-122.26417974572232" stroke="#8eeffacc" stroke-width="6" stroke-dasharray="" opacity="1"/><line transform="translate(557.0362358031368,312.1363636363636)" x2="0" y2="-105.22204351876687" stroke="#8eeffacc" stroke-width="6" stroke-dasharray="" opacity="1"/><line transform="translate(551.1952406706328,312.1363636363636)" x2="0" y2="-102.19424817713764" stroke="#8eeffacc" stroke-width="6" stroke-dasharray="" opacity="1"/><line transform="translate(545.1595457003785,312.1363636363636)" x2="0" y2="-99.60652456314105" stroke="#8eeffacc" stroke-width="6" stroke-dasharray="" opacity="1"/><line transform="translate(539.5132504056246,312.1363636363636)" x2="0" y2="-105.85029471193161" stroke="#8eeffacc" stroke-width="6" stroke-dasharray="" opacity="1"/><line transform="translate(533.4775554353705,312.1363636363636)" x2="0" y2="-88.12546349746435" stroke="#8eeffacc" stroke-width="6" stroke-dasharray="" opacity="1"/><line transform="translate(527.4418604651163,312.1363636363636)" x2="0" y2="-189.2096666263178" stroke="#8eeffacc" stroke-width="6" stroke-dasharray="" opacity="1"/><line transform="translate(521.6008653326122,312.1363636363636)" x2="0" y2="-153.1694616007388" stroke="#8eeffacc" stroke-width="6" stroke-dasharray="" opacity="1"/><line transform="translate(515.565170362358,312.1363636363636)" x2="0" y2="-142.78034816345127" stroke="#8eeffacc" stroke-width="6" stroke-dasharray="" opacity="1"/><line transform="translate(509.724175229854,312.1363636363636)" x2="0" y2="-118.29258489904947" stroke="#8eeffacc" stroke-width="6" stroke-dasharray="" opacity="1"/><line transform="translate(503.68848025959977,312.1363636363636)" x2="0" y2="-265.3779015405252" stroke="#8eeffacc" stroke-width="6" stroke-dasharray="" opacity="1"/><line transform="translate(497.65278528934556,312.1363636363636)" x2="0" y2="-167.5691531492028" stroke="#8eeffacc" stroke-width="6" stroke-dasharray="" opacity="1"/><line transform="translate(491.81179015684154,312.1363636363636)" x2="0" y2="-158.39106102435642" stroke="#8eeffacc" stroke-width="6" stroke-dasharray="" opacity="1"/><line transform="translate(485.7760951865873,312.1363636363636)" x2="0" y2="-145.05420627241807" stroke="#8eeffacc" stroke-width="6" stroke-dasharray="" opacity="1"/><line transform="translate(479.9351000540833,312.1363636363636)" x2="0" y2="-122.71143724113787" stroke="#8eeffacc" stroke-width="6" stroke-dasharray="" opacity="1"/><line transform="translate(473.8994050838291,312.1363636363636)" x2="0" y2="-131.32503764933224" stroke="#8eeffacc" stroke-width="6" stroke-dasharray="" opacity="1"/><line transform="translate(468.44780962682535,312.1363636363636)" x2="0" y2="-131.87611723836594" stroke="#8eeffacc" stroke-width="6" stroke-dasharray="" opacity="1"/><line transform="translate(462.41211465657113,312.1363636363636)" x2="0" y2="-84.72592633515595" stroke="#8eeffacc" stroke-width="6" stroke-dasharray="" opacity="1"/><line transform="translate(456.3764196863169,312.1363636363636)" x2="0" y2="-277.9366735592462" stroke="#8eeffacc" stroke-width="6" stroke-dasharray="" opacity="1"/><line transform="translate(450.5354245538129,312.1363636363636)" x2="0" y2="-186.37050946340906" stroke="#8eeffacc" stroke-width="6" stroke-dasharray="" opacity="1"/><line transform="translate(444.4997295835587,312.1363636363636)" x2="0" y2="-143.60760894354186" stroke="#8eeffacc" stroke-width="6" stroke-dasharray="" opacity="1"/><line transform="translate(438.65873445105467,312.1363636363636)" x2="0" y2="-165.33882971224907" stroke="#8eeffacc" stroke-width="6" stroke-dasharray="" opacity="1"/><line transform="translate(432.62303948080046,312.1363636363636)" x2="0" y2="-134.5568606785608" stroke="#8eeffacc" stroke-width="6" stroke-dasharray="" opacity="1"/><line transform="translate(426.58734451054625,312.1363636363636)" x2="0" y2="-117.18331797203555" stroke="#8eeffacc" stroke-width="6" stroke-dasharray="" opacity="1"/><line transform="translate(420.7463493780422,312.1363636363636)" x2="0" y2="-120.20219113264119" stroke="#8eeffacc" stroke-width="6" stroke-dasharray="" opacity="1"/><line transform="translate(414.710654407788,312.1363636363636)" x2="0" y2="-117.93809608049423" stroke="#8eeffacc" stroke-width="6" stroke-dasharray="" opacity="1"/><line transform="translate(408.869659275284,312.1363636363636)" x2="0" y2="-103.01046301531974" stroke="#8eeffacc" stroke-width="6" stroke-dasharray="" opacity="1"/><line transform="translate(402.8339643050298,312.1363636363636)" x2="0" y2="-119.62090364254894" stroke="#8eeffacc" stroke-width="6" stroke-dasharray="" opacity="1"/><line transform="translate(397.3823688480259,312.1363636363636)" x2="0" y2="-118.21289355843152" stroke="#8eeffacc" stroke-width="6" stroke-dasharray="" opacity="1"/><line transform="translate(391.34667387777176,312.1363636363636)" x2="0" y2="-95.02210256252195" stroke="#8eeffacc" stroke-width="6" stroke-dasharray="" opacity="1"/><line transform="translate(385.31097890751755,312.1363636363636)" x2="0" y2="-178.1826799257483" stroke="#8eeffacc" stroke-width="6" stroke-dasharray="" opacity="1"/><line transform="translate(379.4699837750135,312.1363636363636)" x2="0" y2="-170.0895465315962" stroke="#8eeffacc" stroke-width="6" stroke-dasharray="" opacity="1"/><line transform="translate(373.4342888047593,312.1363636363636)" x2="0" y2="-143.21774418595498" stroke="#8eeffacc" stroke-width="6" stroke-dasharray="" opacity="1"/><line transform="translate(367.59329367225524,312.1363636363636)" x2="0" y2="-143.07765536938595" stroke="#8eeffacc" stroke-width="6" stroke-dasharray="" opacity="1"/><line transform="translate(361.5575987020011,312.1363636363636)" x2="0" y2="-125.01883866247215" stroke="#8eeffacc" stroke-width="6" stroke-dasharray="" opacity="1"/><line transform="translate(355.5219037317469,312.1363636363636)" x2="0" y2="-90.2025318815621" stroke="#8eeffacc" stroke-width="6" stroke-dasharray="" opacity="1"/><line transform="translate(349.6809085992428,312.1363636363636)" x2="0" y2="-102.08025388048887" stroke="#8eeffacc" stroke-width="6" stroke-dasharray="" opacity="1"/><line transform="translate(343.64521362898864,312.1363636363636)" x2="0" y2="-97.25442368973685" stroke="#8eeffacc" stroke-width="6" stroke-dasharray="" opacity="1"/><line transform="translate(337.80421849648457,312.1363636363636)" x2="0" y2="-86.84185392624136" stroke="#8eeffacc" stroke-width="6" stroke-dasharray="" opacity="1"/><line transform="translate(331.7685235262304,312.1363636363636)" x2="0" y2="-86.21960433876919" stroke="#8eeffacc" stroke-width="6" stroke-dasharray="" opacity="1"/><line transform="translate(326.3169280692266,312.1363636363636)" x2="0" y2="-78.7540826487751" stroke="#8eeffacc" stroke-width="6" stroke-dasharray="" opacity="1"/><line transform="translate(320.28123309897245,312.1363636363636)" x2="0" y2="-80.48107635215206" stroke="#8eeffacc" stroke-width="6" stroke-dasharray="" opacity="1"/><line transform="translate(314.24553812871824,312.1363636363636)" x2="0" y2="-117.43826079606657" stroke="#8eeffacc" stroke-width="6" stroke-dasharray="" opacity="1"/><line transform="translate(308.40454299621416,312.1363636363636)" x2="0" y2="-83.5944938189285" stroke="#8eeffacc" stroke-width="6" stroke-dasharray="" opacity="1"/><line transform="translate(302.36884802596,312.1363636363636)" x2="0" y2="-70.69638492379448" stroke="#8eeffacc" stroke-width="6" stroke-dasharray="" opacity="1"/><line transform="translate(296.52785289345593,312.1363636363636)" x2="0" y2="-66.89581446979" stroke="#8eeffacc" stroke-width="6" stroke-dasharray="" opacity="1"/><line transform="translate(290.4921579232018,312.1363636363636)" x2="0" y2="-53.62346406068946" stroke="#8eeffacc" stroke-width="6" stroke-dasharray="" opacity="1"/><line transform="translate(284.45646295294756,312.1363636363636)" x2="0" y2="-44.6641657144167" stroke="#8eeffacc" stroke-width="6" stroke-dasharray="" opacity="1"/><line transform="translate(278.6154678204435,312.1363636363636)" x2="0" y2="-30.86526149906433" stroke="#8eeffacc" stroke-width="6" stroke-dasharray="" opacity="1"/><line transform="translate(272.5797728501893,312.1363636363636)" x2="0" y2="-27.778802388494" stroke="#8eeffacc" stroke-width="6" stroke-dasharray="" opacity="1"/><line transform="translate(266.73877771768525,312.1363636363636)" x2="0" y2="-32.11927518891446" stroke="#8eeffacc" stroke-width="6" stroke-dasharray="" opacity="1"/><line transform="translate(260.70308274743104,312.1363636363636)" x2="0" y2="-40.20742138858094" stroke="#8eeffacc" stroke-width="6" stroke-dasharray="" opacity="1"/><line transform="translate(255.05678745267713,312.1363636363636)" x2="0" y2="-28.457014622919132" stroke="#8eeffacc" stroke-width="6" stroke-dasharray="" opacity="1"/><line transform="translate(249.02109248242294,312.1363636363636)" x2="0" y2="-25.471825527408726" stroke="#8eeffacc" stroke-width="6" stroke-dasharray="" opacity="1"/><line transform="translate(242.98539751216873,312.1363636363636)" x2="0" y2="-16.98534130117065" stroke="#8eeffacc" stroke-width="6" stroke-dasharray="" opacity="1"/><line transform="translate(237.14440237966468,312.1363636363636)" x2="0" y2="-13.020193500602716" stroke="#8eeffacc" stroke-width="6" stroke-dasharray="" opacity="1"/><line transform="translate(231.1087074094105,312.1363636363636)" x2="0" y2="-14.650236209237448" stroke="#8eeffacc" stroke-width="6" stroke-dasharray="" opacity="1"/><line transform="translate(225.26771227690645,312.1363636363636)" x2="0" y2="-20.12836633333609" stroke="#8eeffacc" stroke-width="6" stroke-dasharray="" opacity="1"/><line transform="translate(219.23201730665227,312.1363636363636)" x2="0" y2="-13.347582163732625" stroke="#8eeffacc" stroke-width="6" stroke-dasharray="" opacity="1"/><line transform="translate(213.19632233639805,312.1363636363636)" x2="0" y2="-15.004580784816994" stroke="#8eeffacc" stroke-width="6" stroke-dasharray="" opacity="1"/><line transform="translate(207.355327203894,312.1363636363636)" x2="0" y2="-14.83055020430254" stroke="#8eeffacc" stroke-width="6" stroke-dasharray="" opacity="1"/><line transform="translate(201.31963223363982,312.1363636363636)" x2="0" y2="-11.644290561708772" stroke="#8eeffacc" stroke-width="6" stroke-dasharray="" opacity="1"/><line transform="translate(195.47863710113577,312.1363636363636)" x2="0" y2="-12.849929398516906" stroke="#8eeffacc" stroke-width="6" stroke-dasharray="" opacity="1"/><line transform="translate(189.44294213088156,312.1363636363636)" x2="0" y2="-16.034124416628288" stroke="#8eeffacc" stroke-width="6" stroke-dasharray="" opacity="1"/><line transform="translate(183.99134667387779,312.1363636363636)" x2="0" y2="-14.441965692170186" stroke="#8eeffacc" stroke-width="6" stroke-dasharray="" opacity="1"/><line transform="translate(177.95565170362357,312.1363636363636)" x2="0" y2="-14.64866375624706" stroke="#8eeffacc" stroke-width="6" stroke-dasharray="" opacity="1"/><line transform="translate(171.9199567333694,312.1363636363636)" x2="0" y2="-13.550355737725567" stroke="#8eeffacc" stroke-width="6" stroke-dasharray="" opacity="1"/><line transform="translate(166.07896160086534,312.1363636363636)" x2="0" y2="-13.088697503982871" stroke="#8eeffacc" stroke-width="6" stroke-dasharray="" opacity="1"/><line transform="translate(160.04326663061113,312.1363636363636)" x2="0" y2="-11.23685893275291" stroke="#8eeffacc" stroke-width="6" stroke-dasharray="" opacity="1"/><line transform="translate(154.20227149810708,312.1363636363636)" x2="0" y2="-9.862009611051008" stroke="#8eeffacc" stroke-width="6" stroke-dasharray="" opacity="1"/><line transform="translate(148.1665765278529,312.1363636363636)" x2="0" y2="-6.502622360306987" stroke="#8eeffacc" stroke-width="6" stroke-dasharray="" opacity="1"/><line transform="translate(142.1308815575987,312.1363636363636)" x2="0" y2="-6.654885345948912" stroke="#8eeffacc" stroke-width="6" stroke-dasharray="" opacity="1"/><line transform="translate(136.28988642509464,312.1363636363636)" x2="0" y2="-6.5041414000191935" stroke="#8eeffacc" stroke-width="6" stroke-dasharray="" opacity="1"/><line transform="translate(130.25419145484045,312.1363636363636)" x2="0" y2="-6.3409992138620055" stroke="#8eeffacc" stroke-width="6" stroke-dasharray="" opacity="1"/><line transform="translate(124.41319632233639,312.1363636363636)" x2="0" y2="-8.45507071791559" stroke="#8eeffacc" stroke-width="6" stroke-dasharray="" opacity="1"/><line transform="translate(118.3775013520822,312.1363636363636)" x2="0" y2="-9.13953239919988" stroke="#8eeffacc" stroke-width="6" stroke-dasharray="" opacity="1"/><line transform="translate(112.92590589507842,312.1363636363636)" x2="0" y2="-8.145168679621122" stroke="#8eeffacc" stroke-width="6" stroke-dasharray="" opacity="1"/><line transform="translate(106.89021092482423,312.1363636363636)" x2="0" y2="-8.590539002507228" stroke="#8eeffacc" stroke-width="6" stroke-dasharray="" opacity="1"/><line transform="translate(100.85451595457003,312.1363636363636)" x2="0" y2="-11.250906610257005" stroke="#8eeffacc" stroke-width="6" stroke-dasharray="" opacity="1"/><line transform="translate(95.01352082206598,312.1363636363636)" x2="0" y2="-8.386718431826296" stroke="#8eeffacc" stroke-width="6" stroke-dasharray="" opacity="1"/><line transform="translate(88.97782585181179,312.1363636363636)" x2="0" y2="-6.690387795143124" stroke="#8eeffacc" stroke-width="6" stroke-dasharray="" opacity="1"/><line transform="translate(83.13683071930772,312.1363636363636)" x2="0" y2="-6.532576789076813" stroke="#8eeffacc" stroke-width="6" stroke-dasharray="" opacity="1"/><line transform="translate(77.10113574905354,312.1363636363636)" x2="0" y2="-7.186193621694031" stroke="#8eeffacc" stroke-width="6" stroke-dasharray="" opacity="1"/><line transform="translate(71.06544077879936,312.1363636363636)" x2="0" y2="-5.383799967324876" stroke="#8eeffacc" stroke-width="6" stroke-dasharray="" opacity="1"/><line transform="translate(65.2244456462953,312.1363636363636)" x2="0" y2="-5.6116669238285795" stroke="#8eeffacc" stroke-width="6" stroke-dasharray="" opacity="1"/><line transform="translate(59.1887506760411,312.1363636363636)" x2="0" y2="-3.9290688296592293" stroke="#8eeffacc" stroke-width="6" stroke-dasharray="" opacity="1"/><line transform="translate(53.34775554353705,312.1363636363636)" x2="0" y2="-4.070317868233474" stroke="#8eeffacc" stroke-width="6" stroke-dasharray="" opacity="1"/><line transform="translate(47.31206057328286,312.1363636363636)" x2="0" y2="-5.100927843265936" stroke="#8eeffacc" stroke-width="6" stroke-dasharray="" opacity="1"/><line transform="translate(41.860465116279066,312.1363636363636)" x2="0" y2="-5.3144136442788295" stroke="#8eeffacc" stroke-width="6" stroke-dasharray="" opacity="1"/><line transform="translate(35.824770146024875,312.1363636363636)" x2="0" y2="-4.58934907173807" stroke="#8eeffacc" stroke-width="6" stroke-dasharray="" opacity="1"/></g><g class="mark-line role-mark layer_1_marks" clip-path="url(#clip2)" role="graphics-symbol" aria-roledescription="line mark container"><path d="M32.904,307.547L38.94,307.547L38.94,306.822L44.392,306.822L44.392,307.035L50.427,307.035L50.427,308.066L56.268,308.066L56.268,308.207L62.304,308.207L62.304,306.525L68.145,306.525L68.145,306.753L74.181,306.753L74.181,304.95L80.216,304.95L80.216,305.604L86.057,305.604L86.057,305.446L92.093,305.446L92.093,303.75L97.934,303.75L97.934,300.885L103.97,300.885L103.97,303.546L110.005,303.546L110.005,303.991L115.457,303.991L115.457,302.997L121.493,302.997L121.493,303.681L127.334,303.681L127.334,305.795L133.369,305.795L133.369,305.632L139.21,305.632L139.21,305.481L145.246,305.481L145.246,305.634L151.282,305.634L151.282,302.274L157.123,302.274L157.123,300.9L163.158,300.9L163.158,299.048L168.999,299.048L168.999,298.586L175.035,298.586L175.035,297.488L181.071,297.488L181.071,297.694L186.522,297.694L186.522,296.102L192.558,296.102L192.558,299.286L198.399,299.286L198.399,300.492L204.435,300.492L204.435,297.306L210.276,297.306L210.276,297.132L216.312,297.132L216.312,298.789L222.347,298.789L222.347,292.008L228.188,292.008L228.188,297.486L234.224,297.486L234.224,299.116L240.065,299.116L240.065,295.151L246.101,295.151L246.101,286.665L252.136,286.665L252.136,283.679L257.783,283.679L257.783,271.929L263.818,271.929L263.818,280.017L269.659,280.017L269.659,284.358L275.695,284.358L275.695,281.271L281.536,281.271L281.536,267.472L287.572,267.472L287.572,258.513L293.607,258.513L293.607,245.241L299.448,245.241L299.448,241.44L305.484,241.44L305.484,228.542L311.325,228.542L311.325,194.698L317.361,194.698L317.361,231.655L323.396,231.655L323.396,233.382L328.848,233.382L328.848,225.917L334.884,225.917L334.884,225.295L340.725,225.295L340.725,214.882L346.76,214.882L346.76,210.056L352.601,210.056L352.601,221.934L358.637,221.934L358.637,187.118L364.673,187.118L364.673,169.059L370.514,169.059L370.514,168.919L376.549,168.919L376.549,142.047L382.39,142.047L382.39,133.954L388.426,133.954L388.426,217.114L394.462,217.114L394.462,193.923L399.913,193.923L399.913,192.515L405.949,192.515L405.949,209.126L411.79,209.126L411.79,194.198L417.826,194.198L417.826,191.934L423.667,191.934L423.667,194.953L429.703,194.953L429.703,177.58L435.738,177.58L435.738,146.798L441.579,146.798L441.579,168.529L447.615,168.529L447.615,125.766L453.456,125.766L453.456,34.2L459.492,34.2L459.492,227.41L465.527,227.41L465.527,180.26L470.979,180.26L470.979,180.811L477.015,180.811L477.015,189.425L482.856,189.425L482.856,167.082L488.891,167.082L488.891,153.745L494.732,153.745L494.732,144.567L500.768,144.567L500.768,46.758L506.804,46.758L506.804,193.844L512.645,193.844L512.645,169.356L518.68,169.356L518.68,158.967L524.521,158.967L524.521,122.927L530.557,122.927L530.557,224.011L536.593,224.011L536.593,206.286L542.239,206.286L542.239,212.53L548.275,212.53L548.275,209.942L554.116,209.942L554.116,206.914L560.151,206.914L560.151,189.872L565.992,189.872L565.992,204.022L572.028,204.022L572.028,197.453L578.064,197.453L578.064,173.891L583.905,173.891L583.905,184.03L589.941,184.03L589.941,191.715L595.782,191.715L595.782,187.077L601.817,187.077L601.817,173.01L607.853,173.01L607.853,164.161L613.304,164.161L613.304,171.675L619.34,171.675L619.34,155.045L625.181,155.045L625.181,161.454L631.217,161.454L631.217,157.98L637.058,157.98L637.058,158.403L643.094,158.403L643.094,153.059L649.129,153.059L649.129,150.385L654.97,150.385L654.97,136.629L661.006,136.629L661.006,125.929L666.847,125.929L666.847,126.017L672.883,126.017L672.883,127.841L678.918,127.841L678.918,128.714L684.37,128.714L684.37,110.98" stroke="#08abbd" stroke-width="1.3333333333333333" stroke-dasharray="" opacity="1"/></g><g class="mark-rule role-mark layer_2_marks" clip-path="url(#clip3)" role="graphics-symbol" aria-roledescription="rule mark container"><line transform="translate(687.2904272579773,312.1363636363636)" x2="0" y2="-26.33766353902172" stroke="#333333" stroke-width="4" stroke-dasharray="" opacity="1"/><line transform="translate(681.8388318009735,312.1363636363636)" x2="0" y2="-9.02147573345917" stroke="#333333" stroke-width="4" stroke-dasharray="" opacity="1"/><line transform="translate(675.8031368307193,312.1363636363636)" x2="0" y2="-5.616229122219352" stroke="#333333" stroke-width="4" stroke-dasharray="" opacity="1"/><line transform="translate(669.767441860465,312.1363636363636)" x2="0" y2="-6.904639051245169" stroke="#333333" stroke-width="4" stroke-dasharray="" opacity="1"/><line transform="translate(663.9264467279611,312.1363636363636)" x2="0" y2="-5.889452632310281" stroke="#333333" stroke-width="4" stroke-dasharray="" opacity="1"/><line transform="translate(657.8907517577069,312.1363636363636)" x2="0" y2="-2.510828131879407" stroke="#333333" stroke-width="4" stroke-dasharray="" opacity="1"/><line transform="translate(652.0497566252028,312.1363636363636)" x2="0" y2="-12.102461830277434" stroke="#333333" stroke-width="4" stroke-dasharray="" opacity="1"/><line transform="translate(646.0140616549486,312.1363636363636)" x2="0" y2="-5.822911157888257" stroke="#333333" stroke-width="4" stroke-dasharray="" opacity="1"/><line transform="translate(639.9783666846944,312.1363636363636)" x2="0" y2="-3.5101722804392352" stroke="#333333" stroke-width="4" stroke-dasharray="" opacity="1"/><line transform="translate(634.1373715521904,312.1363636363636)" x2="0" y2="-6.079563506092086" stroke="#333333" stroke-width="4" stroke-dasharray="" opacity="1"/><line transform="translate(628.1016765819362,312.1363636363636)" x2="0" y2="-4.234233762310907" stroke="#333333" stroke-width="4" stroke-dasharray="" opacity="1"/><line transform="translate(622.2606814494321,312.1363636363636)" x2="0" y2="-3.0531638223503137" stroke="#333333" stroke-width="4" stroke-dasharray="" opacity="1"/><line transform="translate(616.2249864791779,312.1363636363636)" x2="0" y2="-7.363155272397989" stroke="#333333" stroke-width="4" stroke-dasharray="" opacity="1"/><line transform="translate(610.7733910221742,312.1363636363636)" x2="0" y2="-5.882140648899622" stroke="#333333" stroke-width="4" stroke-dasharray="" opacity="1"/><line transform="translate(604.73769605192,312.1363636363636)" x2="0" y2="-5.149992439884727" stroke="#333333" stroke-width="4" stroke-dasharray="" opacity="1"/><line transform="translate(598.7020010816658,312.1363636363636)" x2="0" y2="-14.551377040863997" stroke="#333333" stroke-width="4" stroke-dasharray="" opacity="1"/><line transform="translate(592.8610059491617,312.1363636363636)" x2="0" y2="-7.560817786737516" stroke="#333333" stroke-width="4" stroke-dasharray="" opacity="1"/><line transform="translate(586.8253109789075,312.1363636363636)" x2="0" y2="-5.825822330665346" stroke="#333333" stroke-width="4" stroke-dasharray="" opacity="1"/><line transform="translate(580.9843158464035,312.1363636363636)" x2="0" y2="-15.067915274602399" stroke="#333333" stroke-width="4" stroke-dasharray="" opacity="1"/><line transform="translate(574.9486208761493,312.1363636363636)" x2="0" y2="-10.057720249298143" stroke="#333333" stroke-width="4" stroke-dasharray="" opacity="1"/><line transform="translate(568.9129259058951,312.1363636363636)" x2="0" y2="-8.680946145422752" stroke="#333333" stroke-width="4" stroke-dasharray="" opacity="1"/><line transform="translate(563.0719307733909,312.1363636363636)" x2="0" y2="-13.090479762695054" stroke="#333333" stroke-width="4" stroke-dasharray="" opacity="1"/><line transform="translate(557.0362358031368,312.1363636363636)" x2="0" y2="-6.7153963414427835" stroke="#333333" stroke-width="4" stroke-dasharray="" opacity="1"/><line transform="translate(551.1952406706328,312.1363636363636)" x2="0" y2="-5.6388022201015815" stroke="#333333" stroke-width="4" stroke-dasharray="" opacity="1"/><line transform="translate(545.1595457003785,312.1363636363636)" x2="0" y2="-12.307994591379725" stroke="#333333" stroke-width="4" stroke-dasharray="" opacity="1"/><line transform="translate(539.5132504056246,312.1363636363636)" x2="0" y2="-23.258636757911233" stroke="#333333" stroke-width="4" stroke-dasharray="" opacity="1"/><line transform="translate(533.4775554353705,312.1363636363636)" x2="0" y2="-12.359680561716118" stroke="#333333" stroke-width="4" stroke-dasharray="" opacity="1"/><line transform="translate(527.4418604651163,312.1363636363636)" x2="0" y2="-13.851280348591104" stroke="#333333" stroke-width="4" stroke-dasharray="" opacity="1"/><line transform="translate(521.6008653326122,312.1363636363636)" x2="0" y2="-16.778364546758837" stroke="#333333" stroke-width="4" stroke-dasharray="" opacity="1"/><line transform="translate(515.565170362358,312.1363636363636)" x2="0" y2="-12.823231033161505" stroke="#333333" stroke-width="4" stroke-dasharray="" opacity="1"/><line transform="translate(509.724175229854,312.1363636363636)" x2="0" y2="-15.725595570864357" stroke="#333333" stroke-width="4" stroke-dasharray="" opacity="1"/><line transform="translate(503.68848025959977,312.1363636363636)" x2="0" y2="-21.141659503678568" stroke="#333333" stroke-width="4" stroke-dasharray="" opacity="1"/><line transform="translate(497.65278528934556,312.1363636363636)" x2="0" y2="-13.441467956280292" stroke="#333333" stroke-width="4" stroke-dasharray="" opacity="1"/><line transform="translate(491.81179015684154,312.1363636363636)" x2="0" y2="-24.045023304897768" stroke="#333333" stroke-width="4" stroke-dasharray="" opacity="1"/><line transform="translate(485.7760951865873,312.1363636363636)" x2="0" y2="-17.852042917818608" stroke="#333333" stroke-width="4" stroke-dasharray="" opacity="1"/><line transform="translate(479.9351000540833,312.1363636363636)" x2="0" y2="-9.985261537442966" stroke="#333333" stroke-width="4" stroke-dasharray="" opacity="1"/><line transform="translate(473.8994050838291,312.1363636363636)" x2="0" y2="-25.90191054191814" stroke="#333333" stroke-width="4" stroke-dasharray="" opacity="1"/><line transform="translate(468.44780962682535,312.1363636363636)" x2="0" y2="-31.313217552734045" stroke="#333333" stroke-width="4" stroke-dasharray="" opacity="1"/><line transform="translate(462.41211465657113,312.1363636363636)" x2="0" y2="-19.812673885498214" stroke="#333333" stroke-width="4" stroke-dasharray="" opacity="1"/><line transform="translate(456.3764196863169,312.1363636363636)" x2="0" y2="-46.62515910817507" stroke="#333333" stroke-width="4" stroke-dasharray="" opacity="1"/><line transform="translate(450.5354245538129,312.1363636363636)" x2="0" y2="-34.776518487144244" stroke="#333333" stroke-width="4" stroke-dasharray="" opacity="1"/><line transform="translate(444.4997295835587,312.1363636363636)" x2="0" y2="-12.783047832234445" stroke="#333333" stroke-width="4" stroke-dasharray="" opacity="1"/><line transform="translate(438.65873445105467,312.1363636363636)" x2="0" y2="-51.11874786480672" stroke="#333333" stroke-width="4" stroke-dasharray="" opacity="1"/><line transform="translate(432.62303948080046,312.1363636363636)" x2="0" y2="-22.24396518934776" stroke="#333333" stroke-width="4" stroke-dasharray="" opacity="1"/><line transform="translate(426.58734451054625,312.1363636363636)" x2="0" y2="-4.815028578132569" stroke="#333333" stroke-width="4" stroke-dasharray="" opacity="1"/><line transform="translate(420.7463493780422,312.1363636363636)" x2="0" y2="-10.844076807523777" stroke="#333333" stroke-width="4" stroke-dasharray="" opacity="1"/><line transform="translate(414.710654407788,312.1363636363636)" x2="0" y2="-1.1841498921110656" stroke="#333333" stroke-width="4" stroke-dasharray="" opacity="1"/><line transform="translate(408.869659275284,312.1363636363636)" x2="0" y2="-3.0194724220950775" stroke="#333333" stroke-width="4" stroke-dasharray="" opacity="1"/><line transform="translate(402.8339643050298,312.1363636363636)" x2="0" y2="-27.91524539665562" stroke="#333333" stroke-width="4" stroke-dasharray="" opacity="1"/><line transform="translate(397.3823688480259,312.1363636363636)" x2="0" y2="-24.823621822628297" stroke="#333333" stroke-width="4" stroke-dasharray="" opacity="1"/><line transform="translate(391.34667387777176,312.1363636363636)" x2="0" y2="-1.9057180247796168" stroke="#333333" stroke-width="4" stroke-dasharray="" opacity="1"/><line transform="translate(385.31097890751755,312.1363636363636)" x2="0" y2="-24.50765987417077" stroke="#333333" stroke-width="4" stroke-dasharray="" opacity="1"/><line transform="translate(379.4699837750135,312.1363636363636)" x2="0" y2="-23.70778804772408" stroke="#333333" stroke-width="4" stroke-dasharray="" opacity="1"/><line transform="translate(373.4342888047593,312.1363636363636)" x2="0" y2="-6.884386983284287" stroke="#333333" stroke-width="4" stroke-dasharray="" opacity="1"/><line transform="translate(367.59329367225524,312.1363636363636)" x2="0" y2="-33.598060032216836" stroke="#333333" stroke-width="4" stroke-dasharray="" opacity="1"/><line transform="translate(361.5575987020011,312.1363636363636)" x2="0" y2="-16.504566018850255" stroke="#333333" stroke-width="4" stroke-dasharray="" opacity="1"/><line transform="translate(355.5219037317469,312.1363636363636)" x2="0" y2="-1.7322116749168686" stroke="#333333" stroke-width="4" stroke-dasharray="" opacity="1"/><line transform="translate(349.6809085992428,312.1363636363636)" x2="0" y2="-13.641245177446535" stroke="#333333" stroke-width="4" stroke-dasharray="" opacity="1"/><line transform="translate(343.64521362898864,312.1363636363636)" x2="0" y2="-9.962896237013297" stroke="#333333" stroke-width="4" stroke-dasharray="" opacity="1"/><line transform="translate(337.80421849648457,312.1363636363636)" x2="0" y2="-1.7648411698144173" stroke="#333333" stroke-width="4" stroke-dasharray="" opacity="1"/><line transform="translate(331.7685235262304,312.1363636363636)" x2="0" y2="-10.606664059880472" stroke="#333333" stroke-width="4" stroke-dasharray="" opacity="1"/><line transform="translate(326.3169280692266,312.1363636363636)" x2="0" y2="-8.264051346993654" stroke="#333333" stroke-width="4" stroke-dasharray="" opacity="1"/><line transform="translate(320.28123309897245,312.1363636363636)" x2="0" y2="-2.234626269538751" stroke="#333333" stroke-width="4" stroke-dasharray="" opacity="1"/></g><g class="mark-text role-mark layer_3_layer_0_marks" role="graphics-object" aria-roledescription="text mark container"><text aria-label="label: June 2020: Purchase incentive introduced" role="graphics-symbol" aria-roledescription="text mark" text-anchor="start" transform="translate(213.19632233639805,226.39756722151088)" font-family="Instrument Sans" font-size="9.333333333333332px" font-style="normal" font-weight="normal" fill="black" fill-opacity="1"><tspan>June 2020:</tspan><tspan x="0" dy="11.333333333333332">Purchase</tspan><tspan x="0" dy="11.333333333333332">incentive</tspan><tspan x="0" dy="11.333333333333332">introduced</tspan></text><text aria-label="label: Fall 2021: Rush before scheduled 2021 expiry and government change." role="graphics-symbol" aria-roledescription="text mark" text-anchor="start" transform="translate(302.36884802596,100.78937259923174)" font-family="Instrument Sans" font-size="9.333333333333332px" font-style="normal" font-weight="normal" fill="black" fill-opacity="1"><tspan>Fall 2021: Rush before</tspan><tspan x="0" dy="11.333333333333332">scheduled 2021 expiry</tspan><tspan x="0" dy="11.333333333333332">and government change.</tspan></text><text aria-label="label: Dec 2022: Last chance for maximum incentive before rates decreased in Jan 2023." role="graphics-symbol" aria-roledescription="text mark" text-anchor="start" transform="translate(438.65873445105467,12.86363636363635)" font-family="Instrument Sans" font-size="9.333333333333332px" font-style="normal" font-weight="normal" fill="black" fill-opacity="1"><tspan>Dec 2022: Last chance for maximum incentive</tspan><tspan x="0" dy="11.333333333333332">before rates decreased in Jan 2023.</tspan></text><text aria-label="label: Aug 2023: Final month for incentive for commercial buyers." role="graphics-symbol" aria-roledescription="text mark" text-anchor="start" transform="translate(515.565170362358,46.35915492957747)" font-family="Instrument Sans" font-size="9.333333333333332px" font-style="normal" font-weight="normal" fill="black" fill-opacity="1"><tspan>Aug 2023: Final month for</tspan><tspan x="0" dy="11.333333333333332">incentive for commercial buyers.</tspan></text><text aria-label="label: Dec 2023: Immediate termination of all EV subsidies following federal budget ruling." role="graphics-symbol" aria-roledescription="text mark" text-anchor="start" transform="translate(527.4418604651163,92.41549295774647)" font-family="Instrument Sans" font-size="9.333333333333332px" font-style="normal" font-weight="normal" fill="black" fill-opacity="1"><tspan>Dec 2023: Immediate termination</tspan><tspan x="0" dy="11.333333333333332">of all EV subsidies following</tspan><tspan x="0" dy="11.333333333333332">federal budget ruling.</tspan></text><text aria-label="label: Black bars: Share of newly registered Tesla cars (starting from Jan 2021)" role="graphics-symbol" aria-roledescription="text mark" text-anchor="start" transform="translate(533.4775554353705,257.7996158770806)" font-family="Instrument Sans" font-size="9.333333333333332px" font-style="normal" font-weight="normal" fill="black" fill-opacity="1"><tspan>Black bars: Share of newly</tspan><tspan x="0" dy="11.333333333333332">registered Tesla cars</tspan><tspan x="0" dy="11.333333333333332">(starting from Jan 2021)</tspan></text></g><g class="mark-group role-title"><g transform="translate(0,-46)"><path class="background" aria-hidden="true" d="M0,0h0v0h0Z" pointer-events="none"/><g><g class="mark-text role-title-text" role="graphics-symbol" aria-roledescription="title" aria-label="Title text 'BEV sales driven by government subsidy deadlines and customer anticipations'" pointer-events="none"><text text-anchor="start" transform="translate(0,14)" font-family="sans-serif" font-size="18px" font-weight="normal" fill="#000000" opacity="1">BEV sales driven by government subsidy deadlines and customer anticipations</text></g><g class="mark-text role-title-subtitle" role="graphics-symbol" aria-roledescription="subtitle" aria-label="Subtitle text 'Monthly share of battery electric vehicles (BEV) among new car registrations in Germany (in %)'" pointer-events="none"><text text-anchor="start" transform="translate(0,33)" font-family="sans-serif" font-size="15px" font-weight="normal" fill="#4D4D4D" opacity="1">Monthly share of battery electric vehicles (BEV) among new car registrations in Germany (in %)</text></g></g><path class="foreground" aria-hidden="true" d="" pointer-events="none" display="none"/></g></g></g><path class="foreground" aria-hidden="true" d="" display="none"/></g></g></g><defs><clipPath id="clip1"><rect x="0" y="0" width="720" height="327"/></clipPath><clipPath id="clip2"><rect x="0" y="0" width="720" height="327"/></clipPath><clipPath id="clip3"><rect x="0" y="0" width="720" height="327"/></clipPath></defs></svg>